<?xml version="1.0" standalone="no"?>
<!DOCTYPE svg PUBLIC "-//W3C//DTD SVG 20010904//EN"
 "http://www.w3.org/TR/2001/REC-SVG-20010904/DTD/svg10.dtd">
<svg version="1.0" xmlns="http://www.w3.org/2000/svg"
 width="700.000000pt" height="700.000000pt" viewBox="0 0 700.000000 700.000000"
 preserveAspectRatio="xMidYMid meet">
<metadata>
Created by potrace 1.14, written by Peter Selinger 2001-2017
</metadata>
<g transform="translate(0.000000,700.000000) scale(0.100000,-0.100000)"
fill="#000000" stroke="none">
<path d="M3437 6724 c-1 -1 -56 -5 -122 -8 -190 -11 -254 -19 -425 -52 -41 -8
-84 -16 -96 -18 -101 -20 -487 -141 -518 -164 -6 -4 -38 -19 -71 -32 -131 -52
-313 -152 -486 -266 -220 -145 -477 -368 -629 -544 -12 -14 -31 -36 -43 -50
-151 -174 -297 -393 -429 -645 -109 -207 -246 -610 -282 -830 -3 -16 -12 -68
-20 -115 -23 -132 -36 -306 -37 -475 -1 -122 9 -348 16 -375 2 -8 7 -40 10
-70 3 -30 8 -62 10 -70 2 -8 7 -35 10 -60 32 -235 144 -582 276 -857 83 -172
267 -473 326 -531 7 -7 13 -17 13 -20 0 -4 10 -18 23 -32 12 -14 48 -57 81
-95 276 -329 650 -619 1051 -815 139 -67 366 -157 474 -186 31 -9 88 -24 126
-35 82 -22 306 -65 385 -74 30 -3 62 -8 70 -10 22 -6 262 -18 360 -18 87 0
290 11 332 18 13 2 46 6 73 10 232 29 496 94 709 174 179 68 296 123 481 226
93 52 93 35 -1 185 -46 74 -87 142 -91 150 -3 8 -18 33 -32 55 -14 22 -31 49
-38 60 -63 104 -179 291 -189 303 -1 2 -38 -17 -81 -42 -270 -152 -566 -249
-893 -291 -101 -13 -501 -14 -560 -2 -14 3 -59 11 -100 17 -507 81 -969 322
-1334 695 -199 203 -383 480 -486 730 -18 44 -36 89 -41 100 -52 122 -112 375
-136 567 -16 126 -7 555 12 628 3 8 7 33 10 55 29 192 121 465 227 674 52 102
182 310 229 366 88 106 152 177 225 249 365 364 843 596 1384 671 76 11 471
14 540 4 319 -45 521 -101 764 -213 43 -20 80 -35 81 -34 1 2 64 125 140 273
76 149 157 306 180 350 64 124 67 111 -33 157 -152 70 -165 75 -294 122 -201
72 -494 143 -672 162 -33 3 -68 7 -78 9 -32 7 -396 23 -401 19z"/>
<path d="M3688 4291 l-1777 -1778 290 -289 c159 -159 292 -291 295 -294 3 -2
267 257 587 576 l582 580 923 -1 922 0 0 415 0 416 -505 0 c-278 -1 -505 1
-505 4 0 3 215 220 477 482 l477 477 57 -87 c171 -264 281 -545 344 -882 25
-130 26 -150 30 -375 3 -177 0 -247 -16 -354 -25 -177 -90 -431 -139 -546
-133 -311 -250 -503 -427 -702 -96 -109 -102 -117 -98 -123 3 -3 134 -134 292
-293 l288 -287 65 67 c319 334 577 771 723 1228 50 157 103 398 122 551 3 27
8 64 10 82 6 43 17 260 17 342 1 68 -11 294 -17 345 -7 55 -17 130 -21 150 -2
10 -6 37 -9 60 -11 77 -57 269 -92 384 -129 426 -366 852 -661 1187 -79 90
-436 444 -446 443 -6 0 -811 -800 -1788 -1778z"/>
</g>
</svg>
