<svg width="1259" height="1050" viewBox="0 0 1259 1050" fill="none" xmlns="http://www.w3.org/2000/svg">
<g id="Logo (Detailed)">
<path id="face" d="M989.884 882.345C1081.25 790.689 1137.71 664.416 1137.71 525C1137.71 384.408 1080.3 257.181 987.563 165.342L626.726 525M956.375 913.093C867.911 987.296 753.716 1032 629.046 1032C348.12 1032 120.384 805.008 120.384 525C120.384 244.992 348.12 18 629.046 18C747.44 18 856.386 58.3162 942.82 125.926M626.726 525L304.158 846.513M626.726 525H1077.68" stroke="#555555" stroke-width="35.8241"/>
<path id="brackets" d="M27.0262 178.286L100.802 220.648C48.4148 310.286 18.4143 414.466 18.4143 525.614C18.4143 636.427 48.2341 740.313 100.328 829.768L25.2803 872.861M1236.66 872.861L1159.41 828.501C1211.05 739.332 1240.59 635.904 1240.59 525.614C1240.59 414.989 1210.87 311.267 1158.94 221.914L1234.92 178.286" stroke="#555555" stroke-width="35.8241"/>
<path id="subticks" d="M337.355 232.761L384.499 279.766M922.285 815.981L871.717 765.561M520.94 923.207L539.669 853.514M735.039 126.513L718.022 189.837M735.039 923.772L716.308 854.072M520.94 127.078L537.958 190.405M229.249 630.825L296.713 612.801M1028.28 417.352L962.523 434.919M229.815 417.352L295.57 434.919M1028.84 630.825L961.379 612.801M471.776 143.718L496.987 204.404M788.338 905.732L760.706 839.218M246.504 681.953L311.429 655.138M1010.75 366.316L948.249 392.13M376.39 851.656L420.102 794.856M879.966 197.3L839.561 249.804M573.975 933.871L583.438 862.199M681.948 116.129L673.37 181.093M219.12 470.232L287.09 479.154M1039.26 577.89L970.408 568.852M301.576 273.224L354.71 313.877M957.849 775.33L901.405 732.145M788.338 144.553L763.124 205.247M471.777 906.567L499.411 840.046M247.342 366.316L309.844 392.13M1011.59 681.953L946.663 655.138M218.834 577.89L287.685 568.852M1038.97 470.232L971.003 479.154M300.243 775.329L356.687 732.145M956.517 273.224L903.382 313.877M378.126 197.3L418.532 249.804M881.703 851.656L837.991 794.856M576.145 116.129L584.722 181.093M684.118 933.871L674.654 862.199" stroke="#555555" stroke-width="1.7912"/>
<path id="ticks" d="M630.262 67.0645V197.905M630.262 982.935V852.094M169.609 523.788H300.879M230.554 752.918L344.189 687.526M398.275 920.978L463.883 807.712M857.712 127.81L792.105 241.074M231.77 294.983L345.407 360.377M1027.54 752.919L913.903 687.526M400.38 127.811L465.987 241.074M859.818 920.978L794.209 807.713" stroke="#555555" stroke-width="7.16481"/>
</g>
</svg>
