<svg width="1359" height="1058" viewBox="0 0 1359 1058" fill="none" xmlns="http://www.w3.org/2000/svg">
<g id="Logo (Detailed)" opacity="0.15" filter="url(#filter0_d_3_26)">
<path id="face" d="M1039.88 836.345C1131.25 744.689 1187.71 618.416 1187.71 479C1187.71 338.408 1130.3 211.181 1037.56 119.342L676.726 479M1006.37 867.093C917.911 941.296 803.716 986 679.046 986C398.12 986 170.384 759.008 170.384 479C170.384 198.992 398.12 -28 679.046 -28C797.44 -28 906.386 12.3162 992.82 79.9262M676.726 479L354.159 800.513M676.726 479H1127.68" stroke="#555555" stroke-width="35.8241"/>
<path id="brackets" d="M77.0262 132.286L150.802 174.648C98.4148 264.286 68.4142 368.466 68.4142 479.614C68.4142 590.427 98.2341 694.313 150.328 783.768L75.2802 826.861M1286.66 826.861L1209.41 782.501C1261.05 693.332 1290.59 589.904 1290.59 479.614C1290.59 368.989 1260.87 265.267 1208.94 175.914L1284.92 132.286" stroke="#555555" stroke-width="35.8241"/>
<path id="subticks" d="M387.355 186.761L434.499 233.766M972.285 769.981L921.717 719.561M570.94 877.207L589.669 807.514M785.039 80.5132L768.022 143.837M785.039 877.772L766.308 808.072M570.94 81.0779L587.958 144.405M279.249 584.825L346.713 566.801M1078.28 371.352L1012.52 388.919M279.815 371.352L345.57 388.919M1078.84 584.825L1011.38 566.801M521.776 97.7178L546.987 158.404M838.338 859.732L810.706 793.218M296.504 635.953L361.429 609.138M1060.75 320.316L998.249 346.13M426.39 805.656L470.102 748.856M929.966 151.3L889.561 203.804M623.975 887.871L633.438 816.199M731.948 70.129L723.37 135.093M269.12 424.232L337.09 433.154M1089.26 531.89L1020.41 522.852M351.575 227.224L404.71 267.877M1007.85 729.33L951.405 686.145M838.338 98.5528L813.124 159.247M521.776 860.567L549.411 794.046M297.342 320.316L359.844 346.13M1061.59 635.953L996.663 609.138M268.834 531.89L337.685 522.852M1088.97 424.232L1021 433.154M350.243 729.329L406.687 686.145M1006.52 227.224L953.382 267.877M428.126 151.3L468.532 203.804M931.703 805.656L887.991 748.856M626.144 70.1291L634.722 135.093M734.118 887.871L724.654 816.199" stroke="#555555" stroke-width="1.7912"/>
<path id="ticks" d="M680.262 21.0645V151.905M680.262 936.935V806.094M219.609 477.788H350.879M280.554 706.918L394.189 641.526M448.275 874.978L513.883 761.712M907.712 81.8104L842.105 195.074M281.77 248.983L395.407 314.377M1077.54 706.919L963.904 641.526M450.38 81.8105L515.987 195.074M909.818 874.978L844.209 761.713" stroke="#555555" stroke-width="7.16481"/>
</g>
<defs>
<filter id="filter0_d_3_26" x="0.502197" y="-91.912" width="1358" height="1149.82" filterUnits="userSpaceOnUse" color-interpolation-filters="sRGB">
<feFlood flood-opacity="0" result="BackgroundImageFix"/>
<feColorMatrix in="SourceAlpha" type="matrix" values="0 0 0 0 0 0 0 0 0 0 0 0 0 0 0 0 0 0 127 0" result="hardAlpha"/>
<feOffset dy="4"/>
<feGaussianBlur stdDeviation="25"/>
<feComposite in2="hardAlpha" operator="out"/>
<feColorMatrix type="matrix" values="0 0 0 0 0 0 0 0 0 0 0 0 0 0 0 0 0 0 0.25 0"/>
<feBlend mode="normal" in2="BackgroundImageFix" result="effect1_dropShadow_3_26"/>
<feBlend mode="normal" in="SourceGraphic" in2="effect1_dropShadow_3_26" result="shape"/>
</filter>
</defs>
</svg>
