<svg width="109" height="85" viewBox="0 0 109 85" fill="none" xmlns="http://www.w3.org/2000/svg">
<g id="colouredLogo">
<path id="c" d="M54.5 81C33.237 81 16 63.763 16 42.5H12C12 65.9721 31.0279 85 54.5 85V81ZM16 42.5C16 21.237 33.237 4 54.5 4V0C31.0279 0 12 19.0279 12 42.5H16ZM54.5 4C62.6233 4 70.1535 6.51358 76.3628 10.8053L78.6372 7.51482C71.7808 2.7759 63.4616 0 54.5 0V4ZM77.4755 73.3961C71.0624 78.1733 63.1142 81 54.5 81V85C64.0043 85 72.7851 81.8778 79.8651 76.6039L77.4755 73.3961Z" fill="#F37249"/>
<path id="a-3" d="M54.3152 44.5H90.2204V40.5H54.3152V44.5Z" fill="#FFC368"/>
<path id="a-2" d="M83.0453 13.7699L84.455 12.3512L84.388 12.2847L84.3151 12.2248L83.0453 13.7699ZM93 42.5C93 53.0874 88.729 62.6734 81.8113 69.6356L84.6488 72.455C92.2808 64.7739 97 54.1861 97 42.5H93ZM81.6356 15.1887C88.6567 22.1649 93 31.8233 93 42.5H97C97 30.7151 92.2008 20.0475 84.455 12.3512L81.6356 15.1887ZM84.3151 12.2248L82.7698 10.9548L80.2302 14.0452L81.7755 15.3151L84.3151 12.2248Z" fill="#FFC368"/>
<path id="a-1" d="M54.3153 42.5L52.901 41.0858L52.901 41.0858L54.3153 42.5ZM55.7295 43.9142L84.4595 15.1842L81.6311 12.3557L52.901 41.0858L55.7295 43.9142ZM30.0465 69.5972C35.0614 64.5823 38.9747 60.669 42.888 56.7557C46.8013 52.8424 50.7145 48.9291 55.7295 43.9142L52.901 41.0858C47.8861 46.1007 43.9728 50.014 40.0595 53.9273C36.1463 57.8406 32.233 61.7539 27.218 66.7688L30.0465 69.5972Z" fill="#FFC368"/>
<path id="brackets" d="M9.6201 15.2448L11.3286 16.2845L12.3927 14.5361L10.6201 13.5127L9.6201 15.2448ZM8.67847 68.1442L9.67847 69.8762L11.3891 68.8886L10.4228 67.1658L8.67847 68.1442ZM100.546 67.7406L98.7926 66.7777L97.8499 68.4937L99.5455 69.4726L100.546 67.7406ZM99.6181 15.6401L98.6181 13.9081L96.8611 14.9225L97.9006 16.6648L99.6181 15.6401ZM2.25 13.299L8.6201 16.9768L10.6201 13.5127L4.25 9.83494L2.25 13.299ZM4 42.5C4 32.8966 6.67868 23.9249 11.3286 16.2845L7.91163 14.205C2.8912 22.4542 0 32.1425 0 42.5H4ZM7.67847 66.4121L1.74999 69.8349L3.74999 73.299L9.67847 69.8762L7.67847 66.4121ZM10.4228 67.1658C6.33281 59.8733 4 51.4621 4 42.5H0C0 52.1649 2.51754 61.2478 6.93409 69.1225L10.4228 67.1658ZM99.5455 69.4726L106.173 73.299L108.173 69.8349L101.546 66.0085L99.5455 69.4726ZM105 42.5C105 51.3037 102.749 59.5756 98.7926 66.7777L102.298 68.7035C106.571 60.9262 109 51.9938 109 42.5H105ZM105.673 9.83494L98.6181 13.9081L100.618 17.3722L107.673 13.299L105.673 9.83494ZM97.9006 16.6648C102.409 24.2219 105 33.0553 105 42.5H109C109 32.314 106.204 22.7749 101.336 14.6154L97.9006 16.6648Z" fill="#FFC368"/>
</g>
</svg>
