<svg width="101" height="101" viewBox="0 0 101 101" fill="none" xmlns="http://www.w3.org/2000/svg">
<g id="favicon">
<path id="c" d="M50.5 85C31.4462 85 16 69.5538 16 50.5H4C4 76.1812 24.8188 97 50.5 97V85ZM16 50.5C16 31.4462 31.4462 16 50.5 16V4C24.8188 4 4 24.8188 4 50.5H16ZM50.5 16C56.1885 16 61.5391 17.3721 66.2555 19.7982L71.7445 9.12716C65.37 5.84816 58.1421 4 50.5 4V16ZM68.5753 79.8926C63.323 83.1307 57.139 85 50.5 85V97C59.4261 97 67.7817 94.4791 74.8728 90.1074L68.5753 79.8926Z" fill="#F37249"/>
<path id="a" d="M79.0453 21.7699L83.2743 17.5137L79.0317 13.2982L74.8027 17.5273L79.0453 21.7699ZM50.3152 56.5H79.5V44.5H50.3152V56.5ZM85 50.5C85 59.9887 81.1773 68.5729 74.9738 74.8163L83.4863 83.2743C91.8325 74.8744 97 63.2849 97 50.5H85ZM74.8163 26.0262C81.1126 32.2822 85 40.9315 85 50.5H97C97 37.607 91.7448 25.9301 83.2743 17.5137L74.8163 26.0262ZM36.0579 73.2426L83.2879 26.0126L74.8027 17.5273L27.5726 64.7574L36.0579 73.2426Z" fill="#FFC368"/>
</g>
</svg>
